<?xml version="1.0" encoding="utf-8"?><svg xmlns="http://www.w3.org/2000/svg" xmlns:xlink="http://www.w3.org/1999/xlink"><symbol viewBox="0 0 32 32" id="contacts-address"><path d="M15.999 17.96a2.91 2.91 0 0 1-2.914-2.907 2.91 2.91 0 0 1 2.914-2.906 2.91 2.91 0 0 1 2.914 2.906A2.91 2.91 0 0 1 16 17.96z"/><path fill-rule="evenodd" clip-rule="evenodd" d="M29 16c0 7.18-5.82 13-13 13S3 23.18 3 16 8.82 3 16 3s13 5.82 13 13zM15.786 9.004c-2.988.104-5.47 2.43-5.757 5.397a6.004 6.004 0 0 0 .08 1.72l.002.015.008.044c.007.03.016.074.03.128.092.412.231.812.404 1.187.601 1.421 1.992 3.799 5.113 6.385.191.16.472.16.666 0 3.12-2.583 4.512-4.96 5.116-6.388a5.735 5.735 0 0 0 .444-1.375c.071-.369.108-.747.108-1.134 0-3.377-2.803-6.1-6.214-5.98z"/><path fill-rule="evenodd" clip-rule="evenodd" d="M32 16c0 8.837-7.163 16-16 16S0 24.837 0 16 7.163 0 16 0s16 7.163 16 16zm-1 0c0 8.284-6.716 15-15 15-8.284 0-15-6.716-15-15C1 7.716 7.716 1 16 1c8.284 0 15 6.716 15 15z"/></symbol><symbol viewBox="0 0 32 32" id="contacts-clock"><path d="M16 16.387h2.605a.387.387 0 1 0 0-.775h-2.218v-3.361a.388.388 0 1 0-.775 0V16c0 .214.174.387.388.387z"/><path fill-rule="evenodd" clip-rule="evenodd" d="M9.322 16A6.686 6.686 0 0 0 16 22.678 6.686 6.686 0 0 0 22.678 16 6.686 6.686 0 0 0 16 9.322 6.686 6.686 0 0 0 9.322 16zm11.77 0c0 .214.174.387.388.387h.41a5.878 5.878 0 0 1-1.447 3.495l-.304-.305a.387.387 0 1 0-.548.548l.305.305a5.878 5.878 0 0 1-3.509 1.46v-.457a.388.388 0 1 0-.775 0v.457a5.88 5.88 0 0 1-3.519-1.469l.33-.33a.387.387 0 1 0-.549-.547l-.327.327a5.878 5.878 0 0 1-1.437-3.483h.457a.388.388 0 1 0 0-.776h-.457a5.88 5.88 0 0 1 1.46-3.508l.304.304a.386.386 0 0 0 .548 0 .387.387 0 0 0 0-.548l-.304-.304a5.88 5.88 0 0 1 3.494-1.446v.41a.388.388 0 0 0 .775 0v-.41a5.877 5.877 0 0 1 3.484 1.437l-.28.28a.387.387 0 1 0 .548.548l.282-.282a5.879 5.879 0 0 1 1.469 3.52h-.41a.388.388 0 0 0-.387.387z"/><path fill-rule="evenodd" clip-rule="evenodd" d="M29 16c0 7.18-5.82 13-13 13S3 23.18 3 16 8.82 3 16 3s13 5.82 13 13zM16 8c-4.411 0-8 3.589-8 8s3.589 8 8 8 8-3.589 8-8-3.589-8-8-8z"/><path fill-rule="evenodd" clip-rule="evenodd" d="M32 16c0 8.837-7.163 16-16 16S0 24.837 0 16 7.163 0 16 0s16 7.163 16 16zm-1 0c0 8.284-6.716 15-15 15-8.284 0-15-6.716-15-15C1 7.716 7.716 1 16 1c8.284 0 15 6.716 15 15z"/></symbol><symbol viewBox="0 0 32 32" id="contacts-email"><path fill-rule="evenodd" clip-rule="evenodd" d="M29 16c0 7.18-5.82 13-13 13S3 23.18 3 16 8.82 3 16 3s13 5.82 13 13zm-6.429-6H9.43c-.458 0-.81.148-1.058.443-.247.296-.37.665-.37 1.108 0 .358.163.746.49 1.164a4.34 4.34 0 0 0 1.045.984c.203.136.813.541 1.83 1.214a642.317 642.317 0 0 1 2.34 1.556l.133.09.246.17c.194.133.354.241.482.324l.079.05a8.475 8.475 0 0 0 .386.227 3.109 3.109 0 0 0 .513.23c.161.05.31.077.447.077h.017a1.648 1.648 0 0 0 .446-.077 2.78 2.78 0 0 0 .514-.23 9.575 9.575 0 0 0 .681-.42l.266-.181.246-.17.075-.05.058-.04 4.179-2.77c.434-.29.797-.64 1.089-1.048.291-.41.437-.838.437-1.287a1.28 1.28 0 0 0-.424-.964 1.415 1.415 0 0 0-1.005-.4zm-13.67 4.61A4.675 4.675 0 0 1 8 13.87v6.583l3.995-3.814a301.072 301.072 0 0 0-3.093-2.028zM22.572 22c.36 0 .671-.113.936-.337l-4.533-4.328-.112.077-.202.139c-.339.238-.614.425-.826.558a5.18 5.18 0 0 1-.843.41 2.684 2.684 0 0 1-.982.208h-.018c-.304 0-.631-.07-.982-.209a5.162 5.162 0 0 1-.844-.41l-.1-.062-.089-.059-.07-.047a19.35 19.35 0 0 1-.567-.39l-.313-.216-4.534 4.329c.265.224.577.337.937.337h13.14zm-2.565-5.36a295.76 295.76 0 0 1 3.1-2.03c.34-.22.637-.468.893-.74v6.583l-3.993-3.812z"/><path fill-rule="evenodd" clip-rule="evenodd" d="M32 16c0 8.837-7.163 16-16 16S0 24.837 0 16 7.163 0 16 0s16 7.163 16 16zm-1 0c0 8.284-6.716 15-15 15-8.284 0-15-6.716-15-15C1 7.716 7.716 1 16 1c8.284 0 15 6.716 15 15z"/></symbol><symbol viewBox="0 0 92 92" id="contacts-reserv"><path fill-rule="evenodd" clip-rule="evenodd" d="M46 89.125c23.817 0 43.125-19.308 43.125-43.125S69.817 2.875 46 2.875 2.875 22.183 2.875 46 22.183 89.125 46 89.125zM46 92c25.405 0 46-20.595 46-46S71.405 0 46 0 0 20.595 0 46s20.595 46 46 46z"/><path d="M29.494 46.806c2.322-6.515 8.346-11.019 15.338-11.475a1.24 1.24 0 0 0 1.166-1.313c-.049-.68-.668-1.19-1.33-1.149-7.996.52-14.879 5.669-17.533 13.118a1.233 1.233 0 0 0 .765 1.574 1.253 1.253 0 0 0 1.595-.755z"/><path fill-rule="evenodd" clip-rule="evenodd" d="M46 83.375c20.643 0 37.375-16.733 37.375-37.375S66.643 8.625 46 8.625 8.625 25.358 8.625 46 25.357 83.375 46 83.375zm3.71-56.148c-.048.337-.145.66-.282.963 11.322 1.537 20.27 10.54 21.418 21.943H21.152c1.149-11.408 10.092-20.406 21.42-21.943a3.513 3.513 0 0 1-.299-1.091 3.363 3.363 0 0 1-.023-.399c0-2.04 1.682-3.7 3.75-3.7s3.75 1.66 3.75 3.7c0 .179-.014.355-.04.527zM74.75 52.6c.432 0 .834.222 1.064.585.229.365.247.816.055 1.2C74.11 57.85 70.582 60 66.66 60H25.34c-3.926 0-7.453-2.151-9.207-5.617a1.184 1.184 0 0 1-.131-.5v-.107a1.215 1.215 0 0 1 .186-.591 1.253 1.253 0 0 1 1.062-.585h57.5z"/></symbol><symbol viewBox="0 0 32 32" id="contacts-tel"><path fill-rule="evenodd" clip-rule="evenodd" d="M29 16c0 7.18-5.82 13-13 13S3 23.18 3 16 8.82 3 16 3s13 5.82 13 13zm-8.226 5.894c-.398.451-3.267 3.278-7.589-3.304-4.555-6.94-1.824-8.84-.639-9.31l.057-.021.094-.034.04-.013c.167-.054.273-.071.273-.071l-.001.008c.785-.135 1.521.17 1.662.843l.248 1.53c.168.803-.482 1.768-1.452 2.156l-.079.031c.514 1.744 1.55 3.752 3.582 5.579l.15-.127c.79-.674 1.963-.808 2.62-.3l1.155.983c.641.496.617 1.38-.12 2.05z"/><path fill-rule="evenodd" clip-rule="evenodd" d="M32 16c0 8.837-7.163 16-16 16S0 24.837 0 16 7.163 0 16 0s16 7.163 16 16zm-1 0c0 8.284-6.716 15-15 15-8.284 0-15-6.716-15-15C1 7.716 7.716 1 16 1c8.284 0 15 6.716 15 15z"/></symbol><symbol viewBox="0 0 139.4 44.7" id="dorohovdesign"><path d="M52.2 19.5V8.1H57c3.6 0 6.1 2.1 6.1 5.7 0 3.5-2.6 5.7-6.1 5.7h-4.8zm7.9-5.7c0-1.8-1.1-3.1-3.1-3.1h-1.9v6.2H57c2 0 3.1-1.4 3.1-3.1m4.1 0c0-3.4 2.6-5.9 6.1-5.9 3.5 0 6.1 2.4 6.1 5.9 0 3.5-2.6 5.9-6.1 5.9-3.5 0-6.1-2.4-6.1-5.9m9.2 0c0-1.9-1.2-3.3-3.1-3.3-1.9 0-3.1 1.4-3.1 3.3 0 1.8 1.2 3.3 3.1 3.3 1.9 0 3.1-1.4 3.1-3.3m11 5.7l-1.9-3.8H81v3.8h-2.9V8.1h5.7c2.5 0 3.9 1.7 3.9 3.8 0 2-1.2 3-2.3 3.4l2.3 4.2h-3.3zm.3-7.6c0-.8-.6-1.2-1.4-1.2H81v2.4h2.3c.8 0 1.4-.4 1.4-1.2m4.2 1.9c0-3.4 2.6-5.9 6.1-5.9 3.5 0 6.1 2.4 6.1 5.9 0 3.5-2.6 5.9-6.1 5.9-3.5 0-6.1-2.4-6.1-5.9m9.1 0c0-1.9-1.2-3.3-3.1-3.3-1.9 0-3.1 1.4-3.1 3.3 0 1.8 1.2 3.3 3.1 3.3 1.9 0 3.1-1.4 3.1-3.3m12.4 5.7v-4.6h-4.7v4.6h-3V8.1h3v4.3h4.7V8.1h2.9v11.4zm4.6-5.7c0-3.4 2.6-5.9 6.1-5.9 3.5 0 6.1 2.4 6.1 5.9 0 3.5-2.6 5.9-6.1 5.9-3.5 0-6.1-2.4-6.1-5.9m9.2 0c0-1.9-1.2-3.3-3.1-3.3-1.9 0-3.1 1.4-3.1 3.3 0 1.8 1.2 3.3 3.1 3.3 1.9 0 3.1-1.4 3.1-3.3m7.3 5.7l-4.3-11.4h3.3l2.8 8.2 2.8-8.2h3.3l-4.2 11.4zm-79.3 17V25.1H57c3.6 0 6.1 2.1 6.1 5.7 0 3.5-2.6 5.7-6.1 5.7h-4.8zm7.9-5.7c0-1.8-1.1-3.1-3.1-3.1h-1.9v6.2H57c2 0 3.1-1.4 3.1-3.1m4.7 5.7V25.1h8.3v2.6h-5.3v1.8H73V32h-5.2v1.9h5.3v2.6zm9.6-1.6l1.5-2.2c.8.8 2.1 1.5 3.6 1.5 1 0 1.6-.4 1.6-.9 0-1.5-6.4-.3-6.4-4.7 0-1.9 1.6-3.6 4.5-3.6 1.8 0 3.4.5 4.6 1.6l-1.6 2.1c-1-.8-2.2-1.2-3.3-1.2-.8 0-1.2.3-1.2.8 0 1.4 6.4.4 6.4 4.6 0 2.3-1.7 3.8-4.7 3.8-2.2 0-3.8-.7-5-1.8m11.5-9.8h2.9v11.3h-2.9zm4.7 5.7c0-3.6 2.8-5.9 6.1-5.9 2.5 0 4.1 1.3 4.8 2.8L99.1 29c-.4-.7-1.3-1.4-2.4-1.4-1.9 0-3.2 1.4-3.2 3.3s1.3 3.3 3.2 3.3c.8 0 1.7-.3 2.1-.7v-.9h-2.6V30h5.5v4.5c-1.2 1.3-2.9 2.2-5 2.2-3.4 0-6.1-2.3-6.1-5.9m20.9 5.7l-4.8-6.6v6.6h-2.9V25.1h3l4.6 6.3v-6.3h2.9v11.4zM17.7 0H0v44.7h17.8c15 0 24.6-8.8 24.6-22.4C42.4 8.7 32.7 0 17.7 0m-.4 35.7h-8V9.5h8c9.3 0 15.7 3.7 15.7 12.7.1 7.5-5.8 13.5-15.7 13.5"/><path d="M19.1 17H17v10.6h2c4 0 6.4-2.4 6.4-5.4 0-3.7-2.6-5.2-6.3-5.2"/></symbol><symbol viewBox="0 0 96.124 96.123" id="fb"><path d="M72.089.02L59.624 0C45.62 0 36.57 9.285 36.57 23.656v10.907H24.037a1.96 1.96 0 0 0-1.96 1.961v15.803a1.96 1.96 0 0 0 1.96 1.96H36.57v39.876a1.96 1.96 0 0 0 1.96 1.96h16.352a1.96 1.96 0 0 0 1.96-1.96V54.287h14.654a1.96 1.96 0 0 0 1.96-1.96l.006-15.803a1.963 1.963 0 0 0-1.961-1.961H56.842v-9.246c0-4.444 1.059-6.7 6.848-6.7l8.397-.003a1.96 1.96 0 0 0 1.959-1.96V1.98A1.96 1.96 0 0 0 72.089.02z"/></symbol><symbol viewBox="0 0 17 17" id="form-email"><path d="M8.5 0C3.813 0 0 3.813 0 8.5 0 13.187 3.813 17 8.5 17c2.27 0 4.405-.884 6.01-2.49a.354.354 0 1 0-.5-.5 7.74 7.74 0 0 1-5.51 2.282C4.204 16.292.708 12.796.708 8.5.708 4.204 4.204.708 8.5.708c4.296 0 7.792 3.496 7.792 7.792v.708a2.127 2.127 0 0 1-2.125 2.125 2.127 2.127 0 0 1-2.125-2.125V6.021a.354.354 0 1 0-.709 0v.376A3.528 3.528 0 0 0 8.5 4.958 3.546 3.546 0 0 0 4.958 8.5 3.546 3.546 0 0 0 8.5 12.042a3.53 3.53 0 0 0 3.046-1.765 2.835 2.835 0 0 0 2.62 1.765A2.837 2.837 0 0 0 17 9.208V8.5C17 3.813 13.187 0 8.5 0zm0 11.333A2.837 2.837 0 0 1 5.667 8.5 2.837 2.837 0 0 1 8.5 5.667 2.837 2.837 0 0 1 11.333 8.5 2.836 2.836 0 0 1 8.5 11.333z"/></symbol><symbol viewBox="0 0 17 17" id="form-name"><path d="M14.671 14.234l2.004-1.002-5.451-2.008 2.008 5.451 1.002-2.003 2.101 2.1a.308.308 0 1 0 .437-.436l-2.1-2.102zm-2.404-1.967l2.854 1.052-1.202.6-.6 1.202-1.052-2.854z"/><path d="M8.5 0C3.813 0 0 3.813 0 8.5a8.479 8.479 0 0 0 2.759 6.262l-.008.007.276.232.055.043c.146.12.298.236.452.348a8.674 8.674 0 0 0 1.354.8l.044.02a8.424 8.424 0 0 0 2.792.75l.083.007c.229.019.46.031.693.031a.309.309 0 1 0 0-.618c-.196 0-.391-.01-.586-.024l-.1-.008a8.004 8.004 0 0 1-.585-.072l-.026-.005a7.847 7.847 0 0 1-1.202-.3l-.036-.012a7.869 7.869 0 0 1-.576-.22l-.004-.002a8.109 8.109 0 0 1-.527-.253l-.068-.035a7.956 7.956 0 0 1-1.013-.645l-.04-.032.029-.017 2.444-1.333c.42-.23.681-.67.681-1.148v-1.113l-.07-.086a5.16 5.16 0 0 1-.928-1.921l-.029-.123-.105-.068a.512.512 0 0 1-.238-.43V7.439c0-.144.061-.278.172-.378l.102-.092V5.247l-.002-.04c-.001-.008-.092-.751.431-1.348.447-.51 1.213-.768 2.276-.768 1.059 0 1.822.256 2.27.762.524.59.438 1.348.437 1.354l-.003 1.762.102.092c.112.1.173.235.173.379v1.095c0 .22-.15.42-.365.487a.309.309 0 0 0 .182.59c.48-.147.8-.58.8-1.077V7.44c0-.268-.097-.528-.273-.733V5.265c.016-.161.073-1.066-.582-1.813-.57-.65-1.492-.98-2.741-.98s-2.171.33-2.74.98c-.656.747-.599 1.652-.583 1.812v1.443a1.126 1.126 0 0 0-.274.732v1.096c0 .34.153.658.414.872.25.98.766 1.723.956 1.975v.894a.69.69 0 0 1-.359.605L3.47 14.214a2.23 2.23 0 0 0-.232.148A7.863 7.863 0 0 1 .618 8.5C.618 4.154 4.154.618 8.5.618s7.882 3.536 7.882 7.882a.309.309 0 1 0 .618 0C17 3.813 13.187 0 8.5 0z"/></symbol><symbol viewBox="0 0 17 17" id="form-tel"><path d="M16.554 13.115l-.66-.44A8.46 8.46 0 0 0 8.534.035a.283.283 0 1 0 0 .567 7.892 7.892 0 0 1 6.886 11.757l-2.308-1.539a1.005 1.005 0 0 0-1.345.219l-1.001 1.288a.429.429 0 0 1-.55.116l-.19-.105c-.632-.345-1.418-.774-3.003-2.359C5.44 8.394 5.01 7.607 4.664 6.976l-.104-.19a.429.429 0 0 1 .113-.552l1.288-1.002c.412-.323.507-.908.219-1.345L3.885.447A1 1 0 0 0 2.538.142L1.1 1.007A2.03 2.03 0 0 0 .174 2.21c-.518 1.888-.128 5.146 4.671 9.946 2.09 2.091 3.888 3.343 5.408 4.052A7.879 7.879 0 0 1 .638 8.5a.283.283 0 1 0-.566 0 8.473 8.473 0 0 0 8.462 8.465 8.39 8.39 0 0 0 2.578-.406c.75.28 1.545.43 2.347.44.45.002.897-.057 1.332-.174a2.027 2.027 0 0 0 1.2-.926l.866-1.438a1 1 0 0 0-.303-1.347zm-.184 1.056l-.863 1.439a1.462 1.462 0 0 1-.866.67c-.824.227-1.94.255-3.374-.262a.281.281 0 0 0-.073-.028c-1.586-.59-3.556-1.844-5.949-4.237C.64 7.147.242 4.102.72 2.358c.104-.364.344-.674.671-.865L2.83.63a.433.433 0 0 1 .584.131l1.247 1.872 1.046 1.57a.436.436 0 0 1-.095.583L4.324 5.788a.992.992 0 0 0-.262 1.273l.102.185c.362.664.812 1.49 2.456 3.134 1.643 1.643 2.469 2.093 3.132 2.455l.187.103a.99.99 0 0 0 1.272-.263l1.002-1.288a.436.436 0 0 1 .584-.095l3.44 2.295a.433.433 0 0 1 .133.584z"/></symbol><symbol viewBox="0 0 16 14" id="icon-down"><path fill-rule="evenodd" clip-rule="evenodd" d="M7.93 11l5.196-9H2.734l5.196 9zm-.866 2.5a1 1 0 0 0 1.732 0l6.928-12a1 1 0 0 0-.866-1.5H1a1 1 0 0 0-.866 1.5l6.929 12z"/></symbol><symbol viewBox="0 0 14 16" id="icon-next"><path fill-rule="evenodd" clip-rule="evenodd" d="M11 7.93L2 2.734v10.392l9-5.196zm2.5.866a1 1 0 0 0 0-1.732L1.5.135a1 1 0 0 0-1.5.866v13.857a1 1 0 0 0 1.5.866l12-6.928z"/></symbol><symbol viewBox="0 0 14 16" id="icon-prev"><path fill-rule="evenodd" clip-rule="evenodd" d="M3 8l9 5.196V2.804L3 8zM.5 7.134a1 1 0 0 0 0 1.732l12 6.928a1 1 0 0 0 1.5-.866V1.072a1 1 0 0 0-1.5-.866L.5 7.134z"/></symbol><symbol viewBox="0 0 16 17" id="icon-search"><path d="M15.757 15.484l-3.944-4.208a6.949 6.949 0 0 0 1.57-4.412C13.382 3.079 10.38 0 6.69 0 3.001 0 0 3.08 0 6.864s3.002 6.863 6.691 6.863a6.505 6.505 0 0 0 3.834-1.242l3.974 4.24a.856.856 0 0 0 1.234.025.913.913 0 0 0 .024-1.266zM6.69 1.791c2.727 0 4.946 2.275 4.946 5.073 0 2.797-2.219 5.073-4.946 5.073S1.746 9.66 1.746 6.864c0-2.798 2.218-5.073 4.945-5.073z"/></symbol><symbol viewBox="0 0 92 92" id="inst"><path d="M46 89.625c24.093 0 43.625-19.532 43.625-43.625S70.093 2.375 46 2.375 2.375 21.907 2.375 46 21.907 89.625 46 89.625zM91.5 46c0 25.129-20.372 45.5-45.5 45.5S.5 71.129.5 46 20.872.5 46 .5 91.5 20.871 91.5 46zm-8.625 0c0 20.365-16.509 36.875-36.875 36.875S9.125 66.365 9.125 46C9.125 25.634 25.634 9.125 46 9.125S82.875 25.635 82.875 46zM63.5 33.364c0-2.877-2.2-4.864-4.863-4.864H33.363c-2.662 0-4.863 1.987-4.863 4.864v25.272c0 2.877 2.2 4.864 4.863 4.864h25.274c2.662 0 4.863-1.987 4.863-4.864V33.364zm-10.762.944c0-.566.464-1.03 1.03-1.03h3.843c.566 0 1.03.464 1.03 1.03v3.664c0 .566-.465 1.03-1.03 1.03h-3.843c-.566 0-1.03-.464-1.03-1.03v-3.664zm-19.46 9.57h1.969a10.457 10.457 0 0 0-.282 2.417c0 5.946 4.97 10.74 11.068 10.74 6.097 0 11.069-4.794 11.069-10.74 0-.83-.1-1.64-.284-2.416h1.84V57.74a.855.855 0 0 1-.851.852H34.13a.857.857 0 0 1-.854-.852V43.88zm6.425 2.048c0-3.363 2.82-6.116 6.328-6.116 3.513 0 6.33 2.753 6.33 6.116 0 3.363-2.82 6.116-6.33 6.116-3.508 0-6.328-2.752-6.328-6.116z"/></symbol><symbol viewBox="0 0 157 81" fill="none" id="logotip"><path fill-rule="evenodd" clip-rule="evenodd" d="M2.248 68.784h12.545l6.911-33.472H36.6l1.728-8.46H10.68L2.248 68.784zm49.244-.001l6.497-31.78h10.782l-2.35 12.49 11.197-12.49h10.644l-6.29 31.78H70.984l2.903-13.605-11.784 13.605h-10.61z" fill="#E31E24"/><path fill-rule="evenodd" clip-rule="evenodd" d="M86.05 68.784l6.29-31.78h10.575l-1.866 9.95h8.605l1.797-9.543h11.197l-6.186 31.373h-11.231l2.661-13.605h-8.467l-2.661 13.605H86.05zm25.712-32.998l.622-3.317h11.266l-.656 3.317h-11.232zm.933-4.941l.415-2.2h11.266l-.415 2.2h-11.266zm.899-4.907h11.37l-.242 1.218h-11.336l.208-1.218zm6.807 43.015l6.255-31.78h10.575l-1.866 9.95h8.64l1.797-9.543h11.197l-6.186 31.373h-11.232l2.661-13.571h-8.501l-2.661 13.571h-10.679zm10.438 1.252l-.622 3.317h-10.782l.691-3.317h10.713zm-.864 4.637l-.415 2.2h-10.817l.415-2.2h10.817zm-.933 5.043H118.19l.242-1.252h10.817l-.207 1.252z" fill="#1C437E"/><path fill-rule="evenodd" clip-rule="evenodd" d="M29.686 68.781h-10.16l6.496-31.78h15.586c15.068-.642 17.349 22.033-2.937 23.962h-7.258l-1.727 7.818zm3.248-15.331l1.486-8.394h4.976c4.666 0 5.08 7.785-1.244 8.394h-5.218z" fill="#E31E24"/><path d="M46.965 25.7l.864 2.605h2.765l.242.677-2.28 1.59.863 2.573-.587.44-2.247-1.625-2.246 1.591-.587-.406.863-2.572-2.246-1.625.242-.677 2.765.034.864-2.606h.725zm14.549 0l.83 2.571h2.764l.242.711-2.246 1.557.864 2.606-.622.406-2.212-1.59-2.246 1.59-.588-.44.864-2.572-2.246-1.59.242-.678h2.765l.864-2.572h.725zm14.481-.034l.83 2.606h2.798l.208.677-2.247 1.59.864 2.573-.587.406-2.246-1.59-2.247 1.59-.587-.406.864-2.606-2.247-1.591.242-.677h2.765l.864-2.572h.726zm14.581 0l.864 2.606h2.765l.242.677-2.281 1.59.864 2.573-.588.44-2.246-1.625-2.246 1.59-.588-.405.864-2.573-2.211-1.624.207-.677 2.765.034.864-2.606h.725zm14.689.034l.83 2.571h2.799l.207.677-2.246 1.59.864 2.607-.622.406-2.212-1.625-2.246 1.625-.588-.44.864-2.572-2.246-1.59.242-.678h2.765l.863-2.572h.726zM1.21 73.793h4.077l-.207 1.015H2.246l-1.036 5.11H0l1.21-6.126zm3.732 3.08a4.89 4.89 0 0 1 .553-1.558 5.57 5.57 0 0 1 .726-.846 4.23 4.23 0 0 1 .898-.541c.415-.17.83-.237 1.348-.237.864 0 1.52.27 1.935.846.415.542.518 1.32.311 2.335-.173.982-.587 1.76-1.244 2.302a3.355 3.355 0 0 1-2.246.846c-.899 0-1.555-.305-1.97-.846-.415-.542-.519-1.32-.311-2.302zm1.244-.035c-.138.711-.104 1.219.138 1.591.242.338.622.542 1.106.542.45 0 .899-.204 1.279-.542.38-.372.622-.88.76-1.59.138-.711.104-1.219-.138-1.591-.208-.339-.588-.508-1.072-.508-.518 0-.933.17-1.313.542-.38.338-.622.846-.76 1.556zm9.158.813l1.071.372c-.31.677-.69 1.184-1.175 1.49-.484.337-1.037.507-1.693.507-.795 0-1.383-.305-1.797-.846-.38-.542-.484-1.32-.311-2.268.207-1.015.622-1.794 1.244-2.369.622-.575 1.348-.846 2.212-.846.725 0 1.278.237 1.624.677.242.237.346.609.38 1.117l-1.244.27c0-.304-.104-.541-.276-.744a1.15 1.15 0 0 0-.76-.27c-.45 0-.83.168-1.176.507-.345.304-.587.846-.726 1.557-.172.778-.138 1.32.07 1.658.207.338.518.508.967.508.311 0 .622-.136.899-.339.242-.203.484-.541.69-.981zm2.868 2.267l1.003-5.076h-1.763l.207-1.05h4.735l-.173 1.05h-1.797l-1.002 5.076h-1.21zm4.977-6.126h1.14l-.795 4.062 3.214-4.061h1.21l-1.21 6.125h-1.14l.795-3.993-3.214 3.993h-1.21l1.21-6.126zm4.769 6.126l1.244-6.126h1.21l-.485 2.403h2.35l.484-2.402h1.21l-1.21 6.125h-1.21l.52-2.673h-2.35l-.554 2.673h-1.21zm7.257-6.126h1.14l-.794 4.062 3.214-4.061h1.209l-1.21 6.125h-1.14l.795-3.993-3.214 3.993h-1.21l1.21-6.126zm5.91 0h1.174l-.276 1.456c-.104.474-.138.778-.138.947 0 .17.069.271.242.407.138.101.38.169.69.169.277 0 .485-.034.692-.102.242-.034.415-.135.587-.237l.519-2.64h1.21l-1.21 6.126h-1.21l.484-2.47c-.276.101-.518.203-.76.237a2.682 2.682 0 0 1-.726.101c-.587 0-1.071-.135-1.417-.44-.31-.27-.414-.778-.276-1.489l.414-2.064zm4.734 6.126l1.21-6.126h1.209l-.484 2.403h2.385l.449-2.402h1.21l-1.21 6.125h-1.21l.553-2.673h-2.384l-.519 2.673H45.86zm7.257-6.126h1.21l-.484 2.437h1.624c.415 0 .76.068 1.037.17.311.135.518.338.657.642.138.305.172.644.103 1.05-.103.406-.276.778-.553 1.083a1.763 1.763 0 0 1-.795.575c-.31.102-.69.17-1.175.17h-2.833l1.21-6.126zm.208 5.077h1.175c.38 0 .656 0 .794-.034.173-.034.311-.135.45-.27a.96.96 0 0 0 .276-.474c.035-.271 0-.474-.173-.61-.172-.135-.483-.203-.967-.203h-1.244l-.311 1.591zm5.494-5.076h1.175l-1.21 6.125h-1.209l1.244-6.126zm2.454 0h1.14l-.829 4.06 3.249-4.06h1.209l-1.244 6.125H63.69l.795-3.993-3.214 3.993h-1.21l1.21-6.126zm3.387-1.524h.587a1.613 1.613 0 0 1-.587.88 1.38 1.38 0 0 1-.933.339c-.38 0-.622-.102-.83-.338-.173-.204-.242-.508-.207-.88h.553c0 .203.034.338.138.44.07.101.242.169.45.169a.892.892 0 0 0 .552-.17.66.66 0 0 0 .277-.44zm4.942 1.523h1.21l-.52 2.606c.277-.033.45-.101.588-.203.104-.135.311-.44.622-.947.38-.677.726-1.083 1.002-1.252.277-.17.692-.237 1.245-.237h.172l-.172.913h-.173c-.242 0-.415.034-.553.068a.973.973 0 0 0-.346.305c-.069.135-.242.372-.449.778-.138.203-.242.406-.346.542-.103.135-.31.27-.552.406.276.067.449.237.587.474.138.236.242.541.38.981l.484 1.692h-1.417l-.415-1.59c0-.034 0-.068-.034-.136 0-.034-.035-.101-.104-.27-.069-.305-.173-.508-.276-.576-.07-.068-.208-.101-.415-.101l-.518 2.673h-1.21l1.21-6.126zm4.216 3.08c.103-.609.31-1.117.587-1.556.173-.305.415-.576.726-.847.276-.236.553-.406.864-.541.415-.17.864-.237 1.348-.237.864 0 1.52.27 1.935.846.415.542.518 1.32.346 2.335-.208.982-.623 1.76-1.28 2.302a3.355 3.355 0 0 1-2.246.846c-.898 0-1.555-.305-1.97-.846-.414-.542-.518-1.32-.31-2.302zm1.244-.034c-.139.711-.104 1.219.138 1.591.242.338.622.542 1.106.542.484 0 .898-.204 1.278-.542.38-.372.657-.88.795-1.59.139-.711.07-1.219-.138-1.591-.242-.339-.622-.508-1.106-.508-.484 0-.933.17-1.313.542-.38.338-.622.846-.76 1.556zm4.872 3.08l1.21-6.126h1.797l.277 4.163 1.866-4.162h1.831l-1.21 6.125h-1.14l.968-4.806-2.143 4.806h-1.175l-.207-4.806-.968 4.806h-1.106zm8.19-6.126h4.735l-1.21 6.126H90.44l1.037-5.11h-2.35l-1.002 5.11h-1.21l1.21-6.126zm6.394 0H98.7l-1.21 6.126h-1.21l1.037-5.076H95.52l-.518 2.606c-.173.744-.276 1.252-.415 1.556-.103.305-.242.508-.484.677-.207.17-.518.271-.933.271-.138 0-.38-.034-.76-.068l.207-.947h.242c.277 0 .45-.034.553-.102.104-.067.173-.237.208-.507l.207-1.05.691-3.486zm4.216 6.126l1.21-6.126h4.423l-.173 1.05h-3.248l-.242 1.353h2.972l-.207 1.016h-2.972l-.346 1.658h3.352l-.207 1.05h-4.562zm6.808-6.126h1.21l-.519 2.606c.277-.033.484-.101.588-.203.104-.135.311-.44.622-.947.38-.677.726-1.083 1.002-1.252.277-.17.691-.237 1.244-.237h.173l-.173.913h-.173c-.241 0-.414.034-.552.068a.971.971 0 0 0-.346.305c-.069.135-.242.372-.449.778a3.76 3.76 0 0 1-.346.542c-.104.135-.311.27-.553.406.277.067.449.237.588.474.138.236.242.541.38.981l.484 1.692h-1.417l-.415-1.59c0-.034 0-.068-.035-.136 0-.034-.034-.101-.103-.27-.069-.305-.173-.508-.242-.576-.104-.068-.242-.101-.449-.101l-.519 2.673h-1.209l1.209-6.126zm8.018 3.859l1.106.372c-.311.677-.726 1.184-1.21 1.49-.484.337-1.037.507-1.693.507-.761 0-1.383-.305-1.763-.846-.414-.542-.518-1.32-.311-2.268.173-1.015.588-1.794 1.21-2.369.656-.575 1.382-.846 2.212-.846.725 0 1.278.237 1.658.677.208.237.346.609.38 1.117l-1.244.27c-.034-.304-.103-.541-.311-.744-.172-.17-.449-.27-.76-.27-.449 0-.829.168-1.175.507-.345.304-.587.846-.726 1.557-.138.778-.138 1.32.069 1.658.208.338.553.508.968.508.311 0 .622-.136.899-.339.276-.203.483-.541.691-.981z" fill="#1C437E"/><path d="M4.619 13.741V2.918c0-.681-.144-1.17-.446-1.453-.288-.27-.787-.424-1.508-.424h-.223V.373h7.199c2.202 0 3.894.373 5.047 1.131 1.141.746 1.718 1.851 1.718 3.304 0 1.452-.577 2.545-1.718 3.29-1.153.746-2.832 1.131-5.034 1.131H8.5v4.512c0 .682.144 1.17.433 1.453.288.283.8.424 1.52.424h.21v.669H2.47v-.669h.223c.708 0 1.193-.141 1.494-.424.289-.283.433-.771.433-1.453zm3.88-5.488h1.142c.97 0 1.665-.27 2.084-.81.407-.527.617-1.414.617-2.635 0-1.157-.223-2.031-.67-2.597-.445-.578-1.127-.861-2.031-.861-.46 0-.76.077-.918.231-.158.141-.223.45-.223.9v5.772zm11.762 8.034v-.669h.223c.708 0 1.193-.141 1.494-.424.289-.283.433-.771.433-1.453V2.918c0-.681-.144-1.17-.446-1.453-.288-.27-.787-.424-1.508-.424h-.223V.373h13.782v4.82h-.643c-.301-1.542-.826-2.558-1.56-3.072-.748-.514-2.085-.771-4.012-.771h-.17c-.538 0-.892.09-1.076.27-.183.167-.262.527-.262 1.054v4.974h.275c1.141 0 1.954-.231 2.426-.68.472-.45.839-1.363 1.101-2.726h.63v7.906h-.63c-.275-1.415-.655-2.366-1.127-2.841-.472-.476-1.272-.707-2.4-.707h-.275v5.064c0 .681.105 1.144.34 1.363.237.231.696.347 1.39.334 1.745-.013 3.069-.283 3.947-.823.879-.527 1.757-1.606 2.636-3.226l.563.103-.498 2.43-.511 2.442h-13.9zm34.797-3.008c-.904 1.144-1.914 1.992-3.002 2.532-1.102.527-2.36.797-3.776.797-2.373 0-4.353-.784-5.927-2.352-1.56-1.569-2.347-3.548-2.347-5.926s.787-4.358 2.347-5.926C43.927.836 45.893.05 48.28.05c1.508 0 2.871.296 4.077.887.38.193.721.232 1.01.103.288-.128.498-.385.603-.771l.053-.219h.655v5.72h-.642c-.433-1.478-1.128-2.647-2.085-3.483-.957-.848-2.059-1.26-3.304-1.26-1.442 0-2.57.63-3.37 1.89-.8 1.247-1.206 3.02-1.206 5.283 0 2.262.406 4.024 1.206 5.27.8 1.26 1.928 1.89 3.37 1.89 1.088 0 2.098-.219 2.99-.643.904-.424 1.782-1.118 2.66-2.07l.761.63zm10.516.462V1.35h-.105c-1.325 0-2.347.321-3.081.99-.722.655-1.167 1.645-1.312 2.969h-.773V.373h14.409v4.936h-.682c-.157-1.324-.59-2.314-1.324-2.97-.734-.668-1.757-.99-3.081-.99h-.183v12.392c0 .682.144 1.17.445 1.453.289.283.787.424 1.508.424h.223v.669h-8.103v-.669h.21c.682 0 1.154-.141 1.429-.424.275-.283.42-.771.42-1.453zm22.407 2.867c-2.426 0-4.432-.784-6.031-2.352-1.6-1.569-2.4-3.548-2.4-5.926s.8-4.358 2.4-5.926C83.55.836 85.555.05 87.98.05c2.426 0 4.446.785 6.032 2.353 1.6 1.568 2.4 3.548 2.4 5.926s-.8 4.357-2.4 5.926c-1.586 1.568-3.606 2.352-6.031 2.352zm0-.964c1.377 0 2.465-.643 3.225-1.928.76-1.286 1.141-3.072 1.141-5.386s-.38-4.1-1.14-5.386c-.761-1.273-1.85-1.916-3.226-1.916-1.377 0-2.452.643-3.212 1.916-.774 1.285-1.154 3.072-1.154 5.386 0 2.313.38 4.1 1.154 5.386.76 1.285 1.835 1.928 3.212 1.928zm15.235-1.903V2.918c0-.681-.144-1.17-.432-1.453-.289-.27-.8-.424-1.521-.424h-.21V.373h7.185c2.216 0 3.894.373 5.048 1.131 1.154.746 1.731 1.851 1.731 3.304 0 1.452-.577 2.545-1.731 3.29-1.141.746-2.832 1.131-5.035 1.131h-1.154v4.512c0 .682.145 1.17.446 1.453.289.283.787.424 1.508.424h.223v.669h-8.208v-.669h.223c.708 0 1.206-.141 1.495-.424.288-.283.432-.771.432-1.453zm3.881-5.488h1.154c.957 0 1.652-.27 2.072-.81.419-.527.629-1.414.629-2.635 0-1.157-.223-2.031-.682-2.597-.446-.578-1.114-.861-2.019-.861-.459 0-.773.077-.931.231-.144.141-.223.45-.223.9v5.772zm13.767 5.488L126.62 0h.616l6.005 13.741c.302.682.59 1.17.879 1.453.275.283.603.424.996.424h.118v.669h-7.762v-.669h.236c.721 0 1.194-.154 1.416-.463.223-.321.197-.784-.078-1.414l-.866-2.082h-5.257l-.826 2.082c-.236.592-.236 1.016 0 1.299.236.283.76.475 1.586.578h.262v.669h-4.969v-.669h.105c.38-.038.695-.193.957-.476.276-.282.551-.745.826-1.4zm4.589-8.496l-2.111 5.347h4.393l-2.282-5.347zm16.062 8.496V2.918c0-.681-.145-1.17-.433-1.453-.302-.27-.8-.424-1.521-.424h-.21V.373h8.195v.668h-.223c-.708 0-1.206.154-1.495.424-.288.283-.432.772-.432 1.453V7.48h5.546V2.918c0-.681-.145-1.17-.433-1.453-.302-.27-.8-.424-1.521-.424h-.21V.373h8.195v.668h-.223c-.708 0-1.206.154-1.495.424-.288.283-.432.772-.432 1.453V13.74c0 .682.144 1.17.432 1.453.302.283.8.424 1.521.424h.223v.669h-8.208v-.669h.223c.708 0 1.207-.141 1.495-.424.288-.283.433-.771.433-1.453V8.548h-5.546v5.193c0 .682.144 1.17.432 1.453.302.283.8.424 1.521.424h.223v.669h-8.208v-.669h.223c.708 0 1.207-.141 1.495-.424.288-.283.433-.771.433-1.453z" fill="#E31E24"/></symbol><symbol viewBox="0 0 16 16" id="modal-close"><path fill-rule="evenodd" clip-rule="evenodd" d="M15.211 13.446L9.908 8.143l5.303-5.304a1.25 1.25 0 0 0-1.767-1.767L8.14 6.375 2.837 1.072a1.25 1.25 0 1 0-1.768 1.767l5.304 5.304-5.304 5.303a1.25 1.25 0 1 0 1.768 1.768L8.14 9.91l5.304 5.304a1.25 1.25 0 1 0 1.767-1.768z"/></symbol><symbol viewBox="0 0 45 45" id="view"><path d="M44.61 42.705L33.674 31.77a19.107 19.107 0 0 0 4.71-12.582C38.383 8.601 29.77 0 19.192 0 8.602 0 0 8.61 0 19.187c0 10.577 8.613 19.188 19.192 19.188 4.81 0 9.211-1.776 12.584-4.71l10.939 10.936c.26.26.608.399.948.399a1.349 1.349 0 0 0 .948-2.295zM2.686 19.187c0-9.1 7.405-16.493 16.497-16.493 9.101 0 16.497 7.404 16.497 16.493 0 9.09-7.396 16.504-16.497 16.504-9.092 0-16.497-7.404-16.497-16.504z"/></symbol><symbol viewBox="0 0 32 32" id="vk"><path fill-rule="evenodd" clip-rule="evenodd" d="M16 29c7.18 0 13-5.82 13-13S23.18 3 16 3 3 8.82 3 16s5.82 13 13 13zm7.906-8.4l.004.01c.02.046.041.124.06.24a.67.67 0 0 1-.003.304c-.022.091-.097.173-.221.248a.714.714 0 0 1-.234.087 1.46 1.46 0 0 1-.288.026l-2.274.034a.97.97 0 0 1-.497-.043 2.128 2.128 0 0 1-.463-.198l-.177-.107a4.163 4.163 0 0 1-.622-.573c-.24-.257-.442-.486-.61-.693a2.924 2.924 0 0 0-.54-.52c-.193-.138-.358-.185-.5-.138l-.025.009a.367.367 0 0 0-.047.022.642.642 0 0 0-.153.129 1.27 1.27 0 0 0-.19.263 1.69 1.69 0 0 0-.152.464 2.814 2.814 0 0 0-.059.693c0 .09-.01.172-.031.247a.49.49 0 0 1-.065.166l-.034.044c-.106.113-.262.179-.47.198h-1.02A3.982 3.982 0 0 1 14 21.364a4.963 4.963 0 0 1-1.166-.473 11.146 11.146 0 0 1-.915-.592c-.273-.2-.481-.37-.624-.514l-.221-.217c-.06-.06-.143-.15-.246-.27a22.44 22.44 0 0 1-.634-.814c-.32-.423-.634-.875-.942-1.351a26.09 26.09 0 0 1-1.088-1.887A26.477 26.477 0 0 1 7.01 12.8a1.03 1.03 0 0 1-.039-.124.515.515 0 0 1-.014-.117.29.29 0 0 1 .027-.145l.035-.053c.09-.113.257-.17.507-.17l2.43-.018c.072.013.14.031.206.06.066.025.115.05.143.075l.043.028c.097.066.168.16.215.285.118.301.252.608.407.928.153.32.274.564.364.73l.143.26a9.837 9.837 0 0 0 .498.931c.079.13.153.244.224.344.073.105.143.196.208.27.124.148.249.261.367.346a.8.8 0 0 0 .173.098.35.35 0 0 0 .128.027.688.688 0 0 0 .24-.044.132.132 0 0 0 .043-.044 2.73 2.73 0 0 0 .106-.197 1.41 1.41 0 0 0 .12-.42c.026-.173.054-.414.085-.724.012-.134.02-.197.02-.261.003-.086-.004-.17-.02-.42a4.412 4.412 0 0 0-.08-.652 1.792 1.792 0 0 0-.125-.41l-.053-.107c-.15-.204-.4-.332-.755-.385-.078-.013-.063-.085.043-.217.1-.116.211-.203.336-.27.314-.156 1.02-.228 2.12-.215.486.006.883.043 1.198.116.061.016.118.035.17.057.046.02.09.04.128.065a.517.517 0 0 1 .183.216c.04.091.072.188.093.285.022.1.032.235.032.408 0 .172-.004.338-.01.492-.003.066-.005.061-.008.056-.004-.008-.008-.016-.014.135a22.41 22.41 0 0 0-.012.74c0 .066-.003.191-.01.376l-.002.096c-.002.14-.003.251 0 .334.003.103.012.222.03.363.02.138.053.254.103.348.05.094.115.166.2.22.05.009.099.021.152.034.052.013.13-.019.23-.097a2.827 2.827 0 0 0 .545-.551c.077-.1.161-.218.253-.355.184-.273.386-.593.604-.962a14.49 14.49 0 0 0 .951-2.013.587.587 0 0 1 .087-.157.375.375 0 0 1 .097-.094l.034-.028.043-.022.116-.028a.452.452 0 0 1 .143-.011.151.151 0 0 1 .034.008l2.555-.019c.23-.031.42-.022.57.022.146.044.239.094.273.147l.053.088c.137.38-.308 1.257-1.33 2.63-.144.191-.337.445-.58.762-.46.595-.727.987-.798 1.172-.1.245-.06.486.124.724.1.126.339.37.718.734h.01l.019.018.018.02c.834.78 1.4 1.441 1.694 1.977.018.03.035.064.055.104z"/><path fill-rule="evenodd" clip-rule="evenodd" d="M32 16c0 8.837-7.164 16-16 16S0 24.837 0 16 7.164 0 16 0s16 7.163 16 16zm-1 0c0 8.284-6.716 15-15 15-8.284 0-15-6.716-15-15C1 7.716 7.716 1 16 1c8.284 0 15 6.716 15 15z"/></symbol></svg>