<svg version="1" xmlns="http://www.w3.org/2000/svg" width="933.333" height="933.333" viewBox="0 0 700.000000 700.000000"><path d="M562.4 80.8l-5.1.3-1 7.2c-.6 4-.9 7.3-.8 7.5.4.5 140.7.3 141.2-.1.6-.7 3.3-14 2.9-14.4-.4-.5-129.9-.9-137.2-.5zM105.5 93.4c-.4 1-10.7 52.4-11.9 58.6-.2 1.4-1.1 5.9-2 10-.8 4.1-1.7 8.6-2 10-.2 1.4-.7 3.6-1 5-.3 1.4-.8 3.6-1 5-.2 1.4-1.2 6.1-2.1 10.5-.9 4.4-1.9 8.9-2.1 10-.2 1.1-1.1 5.5-2 9.8-.8 4.2-1.8 9-2 10.5-.3 1.5-3.9 19.6-8.1 40.2-4.1 20.6-7.7 38.4-7.9 39.5-.2 1.1-1.1 5.5-2 9.8-.8 4.2-1.8 9-2 10.5-.3 1.5-1.2 6.1-2.1 10.2-1.9 9.6-1.3 6.5-7.3 36.5-6 30.2-5.4 27.2-8 40-1.1 5.5-2.2 11.1-2.5 12.5-.3 1.4-1.6 8.1-3 15-3.5 17.2-3.5 17.1-4 20.4-.3 1.5-1.9 9.6-3.6 18-1.7 8.3-3.3 16-3.5 17.1-.2 1.1-.6 3.1-.9 4.5-.2 1.4-2 10.4-4 20s-3.8 18.6-4 20c-.3 1.4-4 20.3-8.4 42S.3 618.6.5 618.8c.6.6 155.6.4 156.2-.2.5-.4 4.9-20.9 9.8-45.1.2-1.1 1.3-6.7 2.5-12.5s2.4-11.6 2.7-13c.2-1.4.9-4.5 1.4-7 .6-2.5 1.3-5.5 1.5-6.8.2-1.2.6-3.2.8-4.5.2-1.2 1.2-5.8 2.1-10.2.9-4.4 1.9-9.1 2.1-10.5.3-1.4.7-3.1 1-3.9.2-.8.7-3 1-5 .3-2 1.4-7.4 2.4-12.1 1-4.7 3.3-15.3 4.9-23.5 1.7-8.3 3.3-15.9 3.5-17 .3-1.1 1.9-9 3.6-17.5 1.7-8.5 3.3-16.4 3.6-17.5.6-2.5 2.4-11.2 3-14.5.3-1.4 1.3-6.6 2.4-11.5 1-5 2.2-10.6 2.5-12.5.3-1.9 1.5-7.8 2.7-13 1.1-5.2 2.2-10.4 2.4-11.5.2-1.1 4.7-22.9 10-48.5s9.8-47.5 10-48.8c1-5.3 1.4-7.3 3.8-18.7 1.4-6.6 2.8-13.5 3.1-15.2.6-3.5 3.3-15.8 4-18.3.4-1.3 11.5-1.5 92.7-1.4 50.8 0 92.8-.1 93.3-.3.6-.2 1.1-1.1 1.2-2.1.1-.9.4-2.8.7-4.2 3.6-17.9 10.8-53 11.1-54.5.3-1.1 1.4-6.7 2.5-12.5 1.2-5.8 2.3-11.6 2.6-13 .3-1.4 1.2-5.3 2-8.8.7-3.5 1.4-7.3 1.4-8.6v-2.3H278.4c-123.1 0-172.7.3-172.9 1.1zM555.5 115l-4 .5-2.2 11c-1.2 6-2.2 12.1-2.2 13.5l-.1 2.5h140.5l1.2-6.5c.7-3.6 1.5-8.1 1.9-10 .3-1.9.9-5.2 1.4-7.3l.8-3.7h-27.7c-15.2-.1-45.1-.2-66.6-.3-21.4-.1-40.8 0-43 .3zM541.4 168.2c-.4 2.9-.8 5.5-.9 5.8-.1.3-.5 2.5-.9 5-1.4 7.5-1.5 8.4-2.1 11-.7 3.1-1.1 5.3-1.9 10.5l-.7 4.1H675l1-3.6c.5-1.9 1.1-4.9 1.3-6.5.3-1.7 1-5.2 1.6-7.8.6-2.6 1.4-6.6 1.6-8.7.3-2.1.9-5 1.5-6.4.5-1.5.8-2.6.5-2.6-.2 0 0-1.4.5-3l.9-3H542.2l-.8 5.2z"/><path d="M296.5 220l-5 .5-3.2 15.5c-1.7 8.5-3.4 17.1-3.7 19-.4 1.9-2.9 15-5.7 29-2.8 14-5.3 26.6-5.5 28-.5 2.7-7.4 37.4-17.5 88.5-3.4 17-6.3 32.1-6.5 33.5-.2 1.4-.7 3.6-1 5-.3 1.4-.8 3.6-1 5-.5 2.8-2.1 11.1-3 15-.3 1.4-.7 3.6-1 5-1.5 7.8-8.6 43.8-9 45.5-.2 1.1-.6 3.1-.9 4.5-.3 1.4-.7 3.6-1 5-.3 1.4-.8 3.8-1 5.5-.5 2.4-5.2 26.4-8 40.5-.3 1.4-.8 3.8-1.1 5.5-.3 1.6-2.5 13.1-5 25.4-2.4 12.3-4.2 22.6-4 22.8.6.6 132.7.5 133.3-.1.4-.4 4.8-21.5 5.9-28.6.3-1.9.7-4.3 1-5.2.3-1 .7-3 1-4.5.2-1.6.9-4.8 1.4-7.3.5-2.5 2.3-11.7 4-20.5 1.7-8.8 3.3-17.1 3.5-18.5.3-1.4.7-3.9 1-5.5.3-1.7 1-5 1.5-7.5s1.2-5.6 1.4-7c.2-1.4.7-3.6 1-5 .6-2.5 1.3-6.4 2.1-11 .4-2.4.9-4.8 2-10 .6-2.9.5-2.1 4.4-22.3 1.7-8.7 3.3-16.2 3.5-16.6.7-1.1 105.6-1 105.6.1 0 .4-1.1 6.5-2.5 13.4s-2.7 14-3 15.7c-.3 1.8-.8 3.9-1 4.7-.2.8-.7 3.1-1 5-.7 4.1-9.7 50.3-12.5 64-1 5.2-2.6 13.3-3.4 18-.9 4.7-1.8 9.4-2 10.5-.3 1.1-1.9 9.2-3.6 18-1.7 8.8-3.3 17-3.5 18.2-.5 2.2-.2 2.3 5.2 2.3 25.4.3 134.6 0 134.9-.2.1-.2.6-1.9.9-3.8.7-4.3 6.6-34.4 10.5-54 3.7-18.7 5.8-29.6 7.5-38.5.3-1.7 1-5 1.5-7.5s1.2-5.9 1.5-7.5c.2-1.7 2-10.7 3.9-20.1 1.9-9.3 3.8-18.6 4.1-20.5.3-1.9 1-5.4 1.5-7.9s1.2-5.6 1.4-7c.3-1.4 1.4-7.2 2.6-13 1.1-5.8 2.2-11.4 2.4-12.5.2-1.1 1.5-7.9 2.9-15 1.5-7.2 2.8-14.2 3.1-15.8.3-1.5.7-3.5 1-4.5.3-.9.7-3.3 1-5.2.3-1.9 1.9-10.3 3.6-18.5 1.7-8.3 3.3-16.1 3.5-17.5.3-1.4.7-3.6 1-5 .3-1.4.8-4.1 1.1-6 .3-1.9.9-5.3 1.4-7.5.5-2.2 1.2-5.6 1.5-7.5.3-1.9.8-4.2 1-5 .3-.8 1.4-6.2 2.5-12 1-5.8 2.2-11.6 2.5-13 .5-2.8 2.4-12.2 3.1-16 .2-1.4.7-3.9 1.1-5.5.3-1.7.7-3.7.8-4.5.2-.8.5-2.9.9-4.5.3-1.7 1.5-7.5 2.5-13 1.1-5.5 2.3-11.1 2.6-12.5.4-2.2 1.1-5.8 2.1-11.3.3-1.6-3.6-1.7-69.6-1.7-77.6 0-70.2-.7-71.4 6.5-.3 1.6-1 5.5-1.6 8.5-.6 3-1.9 10.2-3 16-2.1 11.5-2.6 14.1-4 21.5-1.4 7.1-4.4 23.3-8.1 43-1.7 9.3-3.5 18.7-4.1 20.7l-.9 3.8h-53.4c-45 0-53.5-.2-53.5-1.4 0-.8.9-5.8 1.9-11.2 1.1-5.5 2.7-13.7 3.5-18.4.8-4.7 3.5-19.3 6-32.5s4.7-25.1 5-26.5c3.1-17.1 5.6-30.2 6.1-32.3.7-2.6.5-2.7-3.1-2.8-26.9-.3-120.1-.3-123.9.1z"/></svg>