<svg width="157" height="81" viewBox="0 0 157 81" fill="none" xmlns="http://www.w3.org/2000/svg">
<path fill-rule="evenodd" clip-rule="evenodd" d="M2.24805 68.7841H14.7927L21.7044 35.3125H36.5991L38.327 26.8516H10.6803L2.24805 68.7841Z" fill="#E31E24"/>
<path fill-rule="evenodd" clip-rule="evenodd" d="M51.4922 68.7832L57.9892 37.0039H68.7714L66.4214 49.4923L77.6183 37.0039H88.2623L81.9727 68.7832H70.9831L73.886 55.178L62.1016 68.7832H51.4922Z" fill="#E31E24"/>
<path fill-rule="evenodd" clip-rule="evenodd" d="M86.0508 68.7838L92.3404 37.0044H102.915L101.049 46.9545H109.654L111.451 37.4106H122.648L116.462 68.7838H105.231L107.892 55.1786H99.4249L96.7639 68.7838H86.0508ZM111.762 35.7861L112.384 32.4694H123.65L122.994 35.7861H111.762ZM112.695 30.8449L113.11 28.645H124.376L123.961 30.8449H112.695ZM113.594 25.9375H124.964L124.722 27.1559H113.386L113.594 25.9375Z" fill="#1C437E"/>
<path fill-rule="evenodd" clip-rule="evenodd" d="M120.401 68.9532L126.656 37.1738H137.231L135.365 47.1239H144.005L145.802 37.58H156.999L150.813 68.9532H139.581L142.242 55.3818H133.741L131.08 68.9532H120.401Z" fill="#1C437E"/>
<path fill-rule="evenodd" clip-rule="evenodd" d="M130.839 70.2051L130.217 73.5218H119.435L120.126 70.2051H130.839Z" fill="#1C437E"/>
<path fill-rule="evenodd" clip-rule="evenodd" d="M129.975 74.8418L129.56 77.0416H118.743L119.158 74.8418H129.975Z" fill="#1C437E"/>
<path fill-rule="evenodd" clip-rule="evenodd" d="M129.042 79.885H118.19L118.432 78.6328H129.249L129.042 79.885Z" fill="#1C437E"/>
<path fill-rule="evenodd" clip-rule="evenodd" d="M29.6855 68.781H19.5254L26.0224 37.0017C31.2061 37.0017 36.4244 37.0017 41.6082 37.0017C56.6756 36.3587 58.9565 59.034 38.6707 60.9631H31.4135L29.6855 68.781ZM32.934 53.4498L34.42 45.0565C36.0097 45.0565 37.8068 45.0565 39.3964 45.0565C44.0618 45.0565 44.4765 52.8406 38.1523 53.4498H32.934Z" fill="#E31E24"/>
<path d="M46.9654 25.6992L47.8294 28.3052H50.594L50.8359 28.9821L48.5551 30.5727L49.419 33.1449L48.8316 33.5848L46.5853 31.9603L44.339 33.551L43.7515 33.1449L44.6154 30.5727L42.3691 28.9482L42.611 28.2713L45.3757 28.3052L46.2397 25.6992H46.9654Z" fill="#1C437E"/>
<path d="M61.5142 25.6992L62.3436 28.2713H65.1083L65.3502 28.9821L63.1039 30.5389L63.9679 33.1449L63.3458 33.551L61.1341 31.9603L58.8878 33.551L58.3003 33.111L59.1643 30.5389L56.918 28.9482L57.1599 28.2713H59.9245L60.7885 25.6992H61.5142Z" fill="#1C437E"/>
<path d="M75.9947 25.666L76.8241 28.272H79.6233L79.8307 28.9489L77.5844 30.5395L78.4483 33.1117L77.8609 33.5178L75.6146 31.9271L73.3683 33.5178L72.7808 33.1117L73.6447 30.5057L71.3984 28.915L71.6403 28.2381H74.405L75.269 25.666H75.9947Z" fill="#1C437E"/>
<path d="M90.5764 25.666L91.4403 28.272H94.205L94.4469 28.9489L92.166 30.5395L93.03 33.1117L92.4425 33.5516L90.1962 31.9271L87.9499 33.5178L87.3624 33.1117L88.2264 30.5395L86.0146 28.915L86.222 28.2381L88.9867 28.272L89.8506 25.666H90.5764Z" fill="#1C437E"/>
<path d="M105.265 25.6992L106.095 28.2713H108.894L109.101 28.9482L106.855 30.5389L107.719 33.1449L107.097 33.551L104.885 31.9265L102.639 33.551L102.051 33.111L102.915 30.5389L100.669 28.9482L100.911 28.2713H103.676L104.539 25.6992H105.265Z" fill="#1C437E"/>
<path d="M1.20954 73.7925H5.28743L5.08008 74.8078H2.24629L1.20954 79.9182H0L1.20954 73.7925ZM4.94185 76.8723C5.04552 76.2631 5.25287 75.7554 5.49478 75.3155C5.70213 75.0109 5.94404 74.7401 6.22051 74.4694C6.53153 74.2325 6.808 74.0633 7.11902 73.9279C7.53372 73.7587 7.94843 73.691 8.4668 73.691C9.33076 73.691 9.98737 73.9617 10.4021 74.5371C10.8168 75.0786 10.9204 75.857 10.7131 76.8723C10.5403 77.8538 10.1256 78.6322 9.46899 79.1737C8.84694 79.7152 8.08666 80.0198 7.2227 80.0198C6.32418 80.0198 5.66757 79.7152 5.25287 79.1737C4.83817 78.6322 4.7345 77.8538 4.94185 76.8723ZM6.18595 76.8384C6.04771 77.5492 6.08227 78.0568 6.32418 78.4291C6.56609 78.7675 6.94623 78.9706 7.43005 78.9706C7.87931 78.9706 8.32857 78.7675 8.70871 78.4291C9.08885 78.0568 9.33076 77.5492 9.46899 76.8384C9.60723 76.1277 9.57267 75.6201 9.33076 75.2478C9.12341 74.9093 8.74327 74.7401 8.25945 74.7401C7.74108 74.7401 7.32637 74.9093 6.94623 75.2816C6.56609 75.6201 6.32418 76.1277 6.18595 76.8384ZM15.3439 77.6507L16.4152 78.023C16.1042 78.6999 15.7241 79.2075 15.2402 79.5121C14.7564 79.8505 14.2035 80.0198 13.5469 80.0198C12.752 80.0198 12.1645 79.7152 11.7498 79.1737C11.3697 78.6322 11.266 77.8538 11.4388 76.9061C11.6462 75.8908 12.0609 75.1124 12.6829 74.5371C13.305 73.9617 14.0307 73.691 14.8947 73.691C15.6204 73.691 16.1733 73.9279 16.5189 74.3678C16.7608 74.6048 16.8645 74.977 16.899 75.4847L15.6549 75.7554C15.6549 75.4509 15.5513 75.2139 15.3785 75.0109C15.1711 74.8417 14.9292 74.7401 14.6182 74.7401C14.1689 74.7401 13.7888 74.9093 13.4432 75.2478C13.0976 75.5524 12.8557 76.0939 12.7175 76.8046C12.5447 77.583 12.5792 78.1245 12.7866 78.463C12.9939 78.8014 13.305 78.9706 13.7542 78.9706C14.0653 78.9706 14.3763 78.8352 14.6527 78.6322C14.8947 78.4291 15.1366 78.0907 15.3439 77.6507ZM18.2123 79.9182L19.2145 74.8417H17.452L17.6593 73.7925H22.3938L22.221 74.8417H20.424L19.4218 79.9182H18.2123ZM23.1887 73.7925H24.3291L23.5343 77.8538L26.7482 73.7925H27.9577L26.7482 79.9182H25.6078L26.4026 75.9247L23.1887 79.9182H21.9791L23.1887 73.7925ZM27.9577 79.9182L29.2018 73.7925H30.4114L29.9275 76.1954H32.2775L32.7613 73.7925H33.9709L32.7613 79.9182H31.5518L32.0702 77.2446H29.7202L29.1673 79.9182H27.9577ZM35.215 73.7925H36.3554L35.5606 77.8538L38.7745 73.7925H39.984L38.7745 79.9182H37.6341L38.4289 75.9247L35.215 79.9182H34.0054L35.215 73.7925ZM41.1245 73.7925H42.2994L42.023 75.2478C41.9193 75.7216 41.8847 76.0262 41.8847 76.1954C41.8847 76.3646 41.9539 76.4662 42.1267 76.6015C42.2649 76.7031 42.5068 76.7708 42.8178 76.7708C43.0943 76.7708 43.3016 76.7369 43.509 76.6692C43.7509 76.6354 43.9237 76.5339 44.0965 76.4323L44.6149 73.7925H45.8244L44.6149 79.9182H43.4053L43.8891 77.4476C43.6127 77.5492 43.3708 77.6507 43.1288 77.6845C42.8869 77.7522 42.645 77.7861 42.4031 77.7861C41.8156 77.7861 41.3318 77.6507 40.9862 77.3461C40.6752 77.0754 40.5715 76.5677 40.7098 75.857L41.1245 73.7925ZM45.859 79.9182L47.0685 73.7925H48.278L47.7942 76.1954H50.1788L50.628 73.7925H51.8376L50.628 79.9182H49.4185L49.9714 77.2446H47.5869L47.0685 79.9182H45.859ZM53.1162 73.7925H54.3258L53.8419 76.2293H55.4662C55.8809 76.2293 56.2265 76.2969 56.5029 76.3985C56.814 76.5339 57.0213 76.7369 57.1595 77.0415C57.2978 77.3461 57.3323 77.6845 57.2632 78.0907C57.1595 78.4968 56.9868 78.8691 56.7103 79.1737C56.4684 79.4783 56.1919 79.6475 55.9154 79.749C55.6044 79.8505 55.2243 79.9182 54.7405 79.9182H51.9067L53.1162 73.7925ZM53.3236 78.8691H54.4986C54.8787 78.8691 55.1552 78.8691 55.2934 78.8352C55.4662 78.8014 55.6044 78.6999 55.7427 78.5645C55.8809 78.4291 55.9846 78.2599 56.0191 78.0907C56.0537 77.8199 56.0191 77.6169 55.8463 77.4815C55.6735 77.3461 55.3625 77.2784 54.8787 77.2784H53.6346L53.3236 78.8691ZM58.8183 73.7925H59.9933L58.7838 79.9182H57.5742L58.8183 73.7925ZM61.272 73.7925H62.4124L61.583 77.8538L64.8315 73.7925H66.041L64.7969 79.9182H63.6911L64.4859 75.9247L61.272 79.9182H60.0624L61.272 73.7925ZM64.6587 72.2695H65.2462C65.1425 72.6418 64.9352 72.9464 64.6587 73.1495C64.3822 73.3864 64.0712 73.4879 63.7256 73.4879C63.3455 73.4879 63.1036 73.3864 62.8962 73.1495C62.7234 72.9464 62.6543 72.6418 62.6889 72.2695H63.2418C63.2418 72.4726 63.2764 72.608 63.3801 72.7095C63.4492 72.811 63.622 72.8787 63.8293 72.8787C64.0712 72.8787 64.244 72.811 64.3822 72.7095C64.5205 72.608 64.6242 72.4726 64.6587 72.2695ZM69.6006 73.7925H70.8101L70.2917 76.3985C70.5682 76.3646 70.741 76.2969 70.8792 76.1954C70.9829 76.06 71.1902 75.7554 71.5013 75.2478C71.8814 74.5709 72.227 74.1648 72.5035 73.9956C72.7799 73.8263 73.1946 73.7587 73.7476 73.7587C73.7821 73.7587 73.8512 73.7587 73.9204 73.7587L73.7476 74.6724H73.5748C73.3329 74.6724 73.1601 74.7063 73.0218 74.7401C72.8836 74.8078 72.7799 74.9093 72.6763 75.0447C72.6071 75.1801 72.4343 75.417 72.227 75.8231C72.0888 76.0262 71.9851 76.2293 71.8814 76.3646C71.7777 76.5 71.5704 76.6354 71.3285 76.7708C71.6049 76.8384 71.7777 77.0077 71.916 77.2446C72.0542 77.4815 72.1579 77.7861 72.2961 78.226L72.7799 79.9182H71.363L70.9483 78.3276C70.9483 78.2937 70.9483 78.2599 70.9138 78.1922C70.9138 78.1584 70.8792 78.0907 70.8101 77.9214C70.741 77.6169 70.6373 77.4138 70.5336 77.3461C70.4645 77.2784 70.3263 77.2446 70.1189 77.2446L69.6006 79.9182H68.391L69.6006 73.7925ZM73.8167 76.8723C73.9204 76.2631 74.1277 75.7554 74.4042 75.3155C74.577 75.0109 74.8189 74.7401 75.1299 74.4694C75.4064 74.2325 75.6828 74.0633 75.9939 73.9279C76.4086 73.7587 76.8578 73.691 77.3416 73.691C78.2056 73.691 78.8622 73.9617 79.2769 74.5371C79.6916 75.0786 79.7953 75.857 79.6225 76.8723C79.4151 77.8538 79.0004 78.6322 78.3438 79.1737C77.7218 79.7152 76.9615 80.0198 76.0975 80.0198C75.199 80.0198 74.5424 79.7152 74.1277 79.1737C73.713 78.6322 73.6093 77.8538 73.8167 76.8723ZM75.0608 76.8384C74.9225 77.5492 74.9571 78.0568 75.199 78.4291C75.4409 78.7675 75.8211 78.9706 76.3049 78.9706C76.7887 78.9706 77.2034 78.7675 77.5835 78.4291C77.9637 78.0568 78.2402 77.5492 78.3784 76.8384C78.5166 76.1277 78.4475 75.6201 78.2402 75.2478C77.9982 74.9093 77.6181 74.7401 77.1343 74.7401C76.6505 74.7401 76.2012 74.9093 75.8211 75.2816C75.4409 75.6201 75.199 76.1277 75.0608 76.8384ZM79.9335 79.9182L81.1431 73.7925H82.9401L83.2166 77.9553L85.0827 73.7925H86.9143L85.7048 79.9182H84.5643L85.532 75.1124L83.3893 79.9182H82.2144L82.007 75.1124L81.0394 79.9182H79.9335ZM88.1238 73.7925H92.8583L91.6488 79.9182H90.4393L91.476 74.8078H89.126L88.1238 79.9182H86.9143L88.1238 73.7925ZM94.5171 73.7925H98.6987L97.4892 79.9182H96.2796L97.3164 74.8417H95.5193L95.001 77.4476C94.8282 78.1922 94.7245 78.6999 94.5863 79.0045C94.4826 79.309 94.3444 79.5121 94.1024 79.6813C93.8951 79.8505 93.5841 79.9521 93.1694 79.9521C93.0311 79.9521 92.7892 79.9182 92.4091 79.8844L92.6164 78.9368H92.8583C93.1348 78.9368 93.3076 78.9029 93.4113 78.8352C93.515 78.7675 93.5841 78.5983 93.6186 78.3276L93.826 77.2784L94.5171 73.7925ZM98.7333 79.9182L99.9428 73.7925H104.366L104.193 74.8417H100.945L100.703 76.1954H103.675L103.468 77.2107H100.496L100.15 78.8691H103.502L103.295 79.9182H98.7333ZM105.541 73.7925H106.751L106.232 76.3985C106.509 76.3646 106.716 76.2969 106.82 76.1954C106.924 76.06 107.131 75.7554 107.442 75.2478C107.822 74.5709 108.168 74.1648 108.444 73.9956C108.721 73.8263 109.135 73.7587 109.688 73.7587C109.723 73.7587 109.792 73.7587 109.861 73.7587L109.688 74.6724H109.515C109.274 74.6724 109.101 74.7063 108.963 74.7401C108.824 74.8078 108.721 74.9093 108.617 75.0447C108.548 75.1801 108.375 75.417 108.168 75.8231C108.064 76.0262 107.926 76.2293 107.822 76.3646C107.718 76.5 107.511 76.6354 107.269 76.7708C107.546 76.8384 107.718 77.0077 107.857 77.2446C107.995 77.4815 108.099 77.7861 108.237 78.226L108.721 79.9182H107.304L106.889 78.3276C106.889 78.2937 106.889 78.2599 106.854 78.1922C106.854 78.1584 106.82 78.0907 106.751 77.9214C106.682 77.6169 106.578 77.4138 106.509 77.3461C106.405 77.2784 106.267 77.2446 106.06 77.2446L105.541 79.9182H104.332L105.541 73.7925ZM113.559 77.6507L114.665 78.023C114.354 78.6999 113.939 79.2075 113.455 79.5121C112.971 79.8505 112.418 80.0198 111.762 80.0198C111.001 80.0198 110.379 79.7152 109.999 79.1737C109.585 78.6322 109.481 77.8538 109.688 76.9061C109.861 75.8908 110.276 75.1124 110.898 74.5371C111.554 73.9617 112.28 73.691 113.11 73.691C113.835 73.691 114.388 73.9279 114.768 74.3678C114.976 74.6048 115.114 74.977 115.148 75.4847L113.904 75.7554C113.87 75.4509 113.801 75.2139 113.593 75.0109C113.421 74.8417 113.144 74.7401 112.833 74.7401C112.384 74.7401 112.004 74.9093 111.658 75.2478C111.313 75.5524 111.071 76.0939 110.932 76.8046C110.794 77.583 110.794 78.1245 111.001 78.463C111.209 78.8014 111.554 78.9706 111.969 78.9706C112.28 78.9706 112.591 78.8352 112.868 78.6322C113.144 78.4291 113.351 78.0907 113.559 77.6507Z" fill="#1C437E"/>
<path d="M4.61887 13.7414V2.91795C4.61887 2.23667 4.47464 1.7482 4.17308 1.4654C3.88463 1.19546 3.3864 1.04121 2.66528 1.04121H2.44238V0.372778H6.54624H9.64052C11.8432 0.372778 13.5346 0.745557 14.6884 1.50397C15.8291 2.24952 16.406 3.355 16.406 4.80755C16.406 6.2601 15.8291 7.35273 14.6884 8.09829C13.5346 8.84384 11.8563 9.22948 9.65363 9.22948H8.49983V13.7414C8.49983 14.4227 8.64406 14.9111 8.93251 15.1939C9.22096 15.4767 9.7323 15.6181 10.4534 15.6181H10.6632V16.2866H6.57246H2.46861V15.6181H2.6915C3.39951 15.6181 3.88463 15.4767 4.18619 15.1939C4.47464 14.9111 4.61887 14.4227 4.61887 13.7414ZM8.49983 8.25254H9.64052C10.6108 8.25254 11.3057 7.9826 11.7252 7.44271C12.1317 6.91568 12.3415 6.02872 12.3415 4.80755C12.3415 3.65066 12.1186 2.77656 11.6728 2.21096C11.227 1.63251 10.5452 1.34971 9.64052 1.34971C9.18162 1.34971 8.88006 1.42684 8.72273 1.58109C8.56539 1.72249 8.49983 2.031 8.49983 2.4809V8.25254ZM20.2607 16.2866V15.6181H20.4836C21.1916 15.6181 21.6768 15.4767 21.9783 15.1939C22.2668 14.9111 22.411 14.4227 22.411 13.7414V2.91795C22.411 2.23667 22.2668 1.7482 21.9652 1.4654C21.6768 1.19546 21.1785 1.04121 20.4574 1.04121H20.2345V0.372778H26.2788H34.0146V2.78941V5.19319H33.3721C33.0705 3.65066 32.5461 2.63516 31.8118 2.12098C31.0645 1.6068 29.7271 1.34971 27.7998 1.34971H27.6293C27.0918 1.34971 26.7377 1.4397 26.5542 1.61966C26.3706 1.78676 26.292 2.14669 26.292 2.67372V7.64838H26.5673C27.708 7.64838 28.5209 7.417 28.9929 6.9671C29.4649 6.51719 29.832 5.60453 30.0943 4.24196H30.7236V8.18827V12.1474H30.0943C29.8189 10.7334 29.4387 9.78222 28.9667 9.3066C28.4947 8.83099 27.6949 8.59961 26.5673 8.59961H26.292V13.6643C26.292 14.3455 26.3968 14.8083 26.6329 15.0268C26.8689 15.2582 27.3278 15.3739 28.0227 15.361C29.7665 15.3482 31.0907 15.0782 31.9692 14.5384C32.8476 14.0113 33.7261 12.9316 34.6046 11.3119L35.1684 11.4147L34.6701 13.8442L34.1588 16.2866H26.292H20.2607ZM55.0583 13.2786C54.1536 14.4227 53.144 15.2711 52.0558 15.8109C50.9544 16.338 49.6957 16.6079 48.2797 16.6079C45.9066 16.6079 43.9267 15.8238 42.3534 14.2556C40.7931 12.6873 40.0064 10.7077 40.0064 8.32967C40.0064 5.9516 40.7931 3.97202 42.3534 2.40378C43.9267 0.835538 45.8934 0.0514177 48.2797 0.0514177C49.7875 0.0514177 51.1511 0.347069 52.3574 0.938373C52.7376 1.13119 53.0785 1.16975 53.3669 1.04121C53.6554 0.912664 53.8652 0.655576 53.9701 0.269943L54.0225 0.0514177H54.6781V5.77164H54.0356C53.6029 4.29338 52.908 3.12363 51.9509 2.28809C50.9938 1.4397 49.8924 1.02835 48.6468 1.02835C47.2046 1.02835 46.077 1.65822 45.2772 2.91795C44.4774 4.16483 44.071 5.93874 44.071 8.20112C44.071 10.4635 44.4774 12.2246 45.2772 13.4714C46.077 14.7312 47.2046 15.361 48.6468 15.361C49.7351 15.361 50.7447 15.1425 51.6362 14.7183C52.5409 14.2941 53.4194 13.6 54.2978 12.6488L55.0583 13.2786ZM65.5736 13.7414V1.34971H65.4687C64.1445 1.34971 63.1218 1.67108 62.3875 2.33951C61.6664 2.99508 61.2206 3.98487 61.0764 5.30888H60.3028V2.84083V0.372778H67.501H74.7122V2.84083V5.30888H74.0304C73.8731 3.98487 73.4404 2.99508 72.7062 2.33951C71.972 1.67108 70.9493 1.34971 69.625 1.34971H69.4415V13.7414C69.4415 14.4227 69.5857 14.9111 69.8872 15.1939C70.1757 15.4767 70.6739 15.6181 71.3951 15.6181H71.6179V16.2866H67.5665H63.5151V15.6181H63.7249C64.4067 15.6181 64.8787 15.4767 65.154 15.1939C65.4294 14.9111 65.5736 14.4227 65.5736 13.7414ZM87.9809 16.6079C85.5553 16.6079 83.5493 15.8238 81.9497 14.2556C80.3501 12.6873 79.5503 10.7077 79.5503 8.32967C79.5503 5.9516 80.3501 3.97202 81.9497 2.40378C83.5493 0.835538 85.5553 0.0514177 87.9809 0.0514177C90.4065 0.0514177 92.4257 0.835538 94.0122 2.40378C95.6117 3.97202 96.4115 5.9516 96.4115 8.32967C96.4115 10.7077 95.6117 12.6873 94.0122 14.2556C92.4257 15.8238 90.4065 16.6079 87.9809 16.6079ZM87.9809 15.6438C89.3576 15.6438 90.4459 15.0011 91.2063 13.7157C91.9668 12.4302 92.347 10.6435 92.347 8.32967C92.347 6.01587 91.9668 4.22911 91.2063 2.94366C90.4459 1.67108 89.3576 1.02835 87.9809 1.02835C86.6042 1.02835 85.5291 1.67108 84.7686 2.94366C83.9951 4.22911 83.6148 6.01587 83.6148 8.32967C83.6148 10.6435 83.9951 12.4302 84.7686 13.7157C85.5291 15.0011 86.6042 15.6438 87.9809 15.6438ZM103.216 13.7414V2.91795C103.216 2.23667 103.072 1.7482 102.784 1.4654C102.495 1.19546 101.984 1.04121 101.263 1.04121H101.053V0.372778H105.144H108.238C110.454 0.372778 112.132 0.745557 113.286 1.50397C114.44 2.24952 115.017 3.355 115.017 4.80755C115.017 6.2601 114.44 7.35273 113.286 8.09829C112.145 8.84384 110.454 9.22948 108.251 9.22948H107.097V13.7414C107.097 14.4227 107.242 14.9111 107.543 15.1939C107.832 15.4767 108.33 15.6181 109.051 15.6181H109.274V16.2866H105.17H101.066V15.6181H101.289C101.997 15.6181 102.495 15.4767 102.784 15.1939C103.072 14.9111 103.216 14.4227 103.216 13.7414ZM107.097 8.25254H108.251C109.208 8.25254 109.903 7.9826 110.323 7.44271C110.742 6.91568 110.952 6.02872 110.952 4.80755C110.952 3.65066 110.729 2.77656 110.27 2.21096C109.824 1.63251 109.156 1.34971 108.251 1.34971C107.792 1.34971 107.478 1.42684 107.32 1.58109C107.176 1.72249 107.097 2.031 107.097 2.4809V8.25254ZM120.864 13.7414L126.62 0H126.922H127.236L133.241 13.7414C133.543 14.4227 133.831 14.9111 134.12 15.1939C134.395 15.4767 134.723 15.6181 135.116 15.6181H135.234V16.2866H131.353H127.472V15.6181H127.708C128.429 15.6181 128.902 15.4639 129.124 15.1554C129.347 14.834 129.321 14.3712 129.046 13.7414L128.18 11.659H122.923L122.097 13.7414C121.861 14.3327 121.861 14.7569 122.097 15.0397C122.333 15.3225 122.857 15.5153 123.683 15.6181H123.945V16.2866H121.454H118.976V15.6181H119.081C119.461 15.5796 119.776 15.4253 120.038 15.1425C120.314 14.8597 120.589 14.397 120.864 13.7414ZM125.453 5.24461L123.342 10.592H127.735L125.453 5.24461ZM141.515 13.7414V2.91795C141.515 2.23667 141.37 1.7482 141.082 1.4654C140.78 1.19546 140.282 1.04121 139.561 1.04121H139.351V0.372778H143.442H147.546V1.04121H147.323C146.615 1.04121 146.117 1.19546 145.828 1.4654C145.54 1.7482 145.396 2.23667 145.396 2.91795V7.48127H150.942V2.91795C150.942 2.23667 150.797 1.7482 150.509 1.4654C150.207 1.19546 149.709 1.04121 148.988 1.04121H148.778V0.372778H152.869H156.973V1.04121H156.75C156.042 1.04121 155.544 1.19546 155.255 1.4654C154.967 1.7482 154.823 2.23667 154.823 2.91795V13.7414C154.823 14.4227 154.967 14.9111 155.255 15.1939C155.557 15.4767 156.055 15.6181 156.776 15.6181H156.999V16.2866H152.895H148.791V15.6181H149.014C149.722 15.6181 150.221 15.4767 150.509 15.1939C150.797 14.9111 150.942 14.4227 150.942 13.7414V8.54819H145.396V13.7414C145.396 14.4227 145.54 14.9111 145.828 15.1939C146.13 15.4767 146.628 15.6181 147.349 15.6181H147.572V16.2866H143.468H139.364V15.6181H139.587C140.295 15.6181 140.794 15.4767 141.082 15.1939C141.37 14.9111 141.515 14.4227 141.515 13.7414Z" fill="#E31E24"/>
</svg>
